<svg width="70" height="70" viewBox="0 0 70 70" fill="none" xmlns="http://www.w3.org/2000/svg">
<g clip-path="url(#clip0_336_23)">
<path d="M35 70C54.33 70 70 54.33 70 35C70 15.67 54.33 0 35 0C15.67 0 0 15.67 0 35C0 54.33 15.67 70 35 70Z" fill="black"/>
<path d="M56.5541 31.5479C56.4447 31.459 55.4535 30.7139 53.3617 30.7139C52.808 30.7139 52.2543 30.7549 51.7074 30.8574C51.3041 28.0752 49.0072 26.7217 48.9047 26.6602L48.3441 26.332L47.975 26.8652C47.5102 27.583 47.1752 28.3691 46.977 29.2031C46.601 30.7891 46.8266 32.2793 47.6332 33.5508C46.6625 34.0908 45.0971 34.2275 44.7826 34.2344H18.9359C18.2592 34.2344 17.7123 34.7813 17.7123 35.458C17.685 37.7207 18.0678 39.9697 18.8402 42.0957C19.7289 44.4336 21.0551 46.1494 22.7777 47.2021C24.7055 48.3848 27.8432 49.0615 31.4047 49.0615C33.0111 49.0684 34.6176 48.918 36.1967 48.624C38.391 48.2207 40.5033 47.4551 42.4447 46.3545C44.0443 45.4248 45.4867 44.249 46.7104 42.8613C48.7543 40.5439 49.9779 37.96 50.8871 35.6699H51.2494C53.4916 35.6699 54.8725 34.7744 55.6312 34.0225C56.1371 33.5439 56.5336 32.9629 56.7865 32.3135L56.9437 31.8418L56.5541 31.5479ZM21.3285 33.4893H24.7943C24.9584 33.4893 25.0951 33.3525 25.0951 33.1885V30.1055C25.0951 29.9414 24.9584 29.8047 24.7943 29.7979H21.3285C21.1645 29.7979 21.0277 29.9346 21.0277 30.0986V33.1885C21.0277 33.3594 21.1645 33.4893 21.3285 33.4893ZM26.1068 33.4893H29.5727C29.7367 33.4893 29.8734 33.3525 29.8734 33.1885V30.1055C29.8734 29.9414 29.7367 29.8047 29.5727 29.7979H26.1068C25.9359 29.7979 25.7992 29.9346 25.7992 30.1055V33.1885C25.7992 33.3594 25.9359 33.4893 26.1068 33.4893ZM30.9467 33.4961H34.4125C34.5766 33.4961 34.7133 33.3594 34.7133 33.1953V30.1123C34.7133 29.9482 34.5766 29.8115 34.4125 29.8047H30.9467C30.7826 29.8047 30.6459 29.9414 30.6459 30.1055V33.1953C30.6459 33.3594 30.7826 33.4893 30.9467 33.4961ZM35.7387 33.4961H39.2045C39.3686 33.4961 39.5053 33.3594 39.5121 33.1953V30.1123C39.5121 29.9414 39.3754 29.8047 39.2045 29.8047H35.7387C35.5746 29.8047 35.4379 29.9414 35.4379 30.1055V33.1953C35.4379 33.3594 35.5678 33.4961 35.7387 33.4961ZM26.1 29.0527H29.5658C29.7299 29.0527 29.8666 28.916 29.8666 28.7451V25.6621C29.8666 25.498 29.7299 25.3613 29.5658 25.3613H26.1C25.9291 25.3613 25.7992 25.498 25.7924 25.6621V28.7451C25.7992 28.916 25.9359 29.0527 26.1 29.0527ZM30.9467 29.0527H34.4125C34.5766 29.0527 34.7133 28.916 34.7133 28.7451V25.6621C34.7133 25.498 34.5766 25.3613 34.4125 25.3613H30.9467C30.7826 25.3613 30.6459 25.498 30.6459 25.6621V28.7451C30.6459 28.916 30.7826 29.0527 30.9467 29.0527ZM35.7387 29.0527H39.2045C39.3754 29.0527 39.5053 28.916 39.5121 28.7451V25.6621C39.5121 25.4912 39.3754 25.3613 39.2045 25.3613H35.7387C35.5746 25.3613 35.4379 25.498 35.4379 25.6621V28.7451C35.4379 28.916 35.5678 29.0527 35.7387 29.0527ZM35.7387 24.6162H39.2045C39.3754 24.6162 39.5121 24.4795 39.5121 24.3086V21.2187C39.5121 21.0547 39.3754 20.918 39.2045 20.918H35.7387C35.5746 20.918 35.4379 21.0547 35.4379 21.2187V24.3086C35.4379 24.4795 35.5678 24.6162 35.7387 24.6162ZM40.5648 33.4961H44.0307C44.1947 33.4961 44.3314 33.3594 44.3314 33.1953V30.1123C44.3314 29.9414 44.1947 29.8115 44.0307 29.8047H40.5648C40.4008 29.8047 40.2641 29.9414 40.2641 30.1055V33.1953C40.2641 33.3594 40.4008 33.4961 40.5648 33.4961Z" fill="white"/>
</g>
<defs>
<clipPath id="clip0_336_23">
<rect width="70" height="70" fill="white"/>
</clipPath>
</defs>
</svg>
