<svg width="82" height="82" viewBox="0 0 82 82" fill="none" xmlns="http://www.w3.org/2000/svg">
<path fill-rule="evenodd" clip-rule="evenodd" d="M38.2672 11.2064H30.2038C25.7506 11.2064 22.1405 14.8165 22.1405 19.2697C22.1405 23.723 25.7506 27.3331 30.2038 27.3331H38.2672V11.2064ZM38.2672 5.73975H43.7338H51.7972C59.2698 5.73975 65.3269 11.7973 65.3269 19.2697C65.3269 23.6794 63.2178 27.5964 59.9526 30.0664C63.2178 32.5365 65.3269 36.4535 65.3269 40.8631C65.3269 48.3355 59.2698 54.3931 51.7972 54.3931C48.7758 54.3931 45.9857 53.4028 43.7338 51.729V54.3931V62.4565C43.7338 69.9289 37.6762 75.9865 30.2038 75.9865C22.7314 75.9865 16.6738 69.9289 16.6738 62.4565C16.6738 58.0465 18.7833 54.1299 22.0482 51.6598C18.7833 49.1896 16.6738 45.2727 16.6738 40.8631C16.6738 36.4535 18.7834 32.5365 22.0483 30.0665C18.7834 27.5964 16.6738 23.6794 16.6738 19.2697C16.6738 11.7973 22.7314 5.73975 30.2038 5.73975H38.2672ZM43.7338 11.2064V27.3331H51.7972C56.2506 27.3331 59.8602 23.723 59.8602 19.2697C59.8602 14.8165 56.2506 11.2064 51.7972 11.2064H43.7338ZM30.2038 48.9264H38.2672V40.8839V40.8631V40.8424V32.7998H30.2038C25.7506 32.7998 22.1405 36.4099 22.1405 40.8631C22.1405 45.3057 25.7333 48.9092 30.1718 48.9264L30.2038 48.9264ZM22.1405 62.4565C22.1405 58.0137 25.7333 54.4104 30.1718 54.3931L30.2038 54.3931H38.2672V62.4565C38.2672 66.9096 34.6571 70.5198 30.2038 70.5198C25.7506 70.5198 22.1405 66.9096 22.1405 62.4565ZM43.7338 40.8471C43.7425 36.4012 47.3493 32.7998 51.7972 32.7998C56.2506 32.7998 59.8602 36.4099 59.8602 40.8631C59.8602 45.3164 56.2506 48.9265 51.7972 48.9265C47.3493 48.9265 43.7425 45.3251 43.7338 40.8792V40.8471Z" fill="black"/>
</svg>
