<svg width="58" height="58" viewBox="0 0 58 58" fill="none" xmlns="http://www.w3.org/2000/svg">
<g clip-path="url(#clip0_336_14)">
<path d="M0 0H58V58H0V0Z" fill="black"/>
<path d="M15.2502 48.469L19.6886 45.7828C20.545 47.301 21.3239 48.5857 23.1924 48.5857C24.9834 48.5857 26.1128 47.8851 26.1128 45.16V26.6277H31.5632V45.2371C31.5632 50.8823 28.254 53.452 23.426 53.452C19.0658 53.452 16.5348 51.1938 15.25 48.4685M34.5237 47.8849L38.9616 45.3154C40.13 47.2233 41.6484 48.6248 44.3345 48.6248C46.5931 48.6248 48.0331 47.4957 48.0331 45.9383C48.0331 44.0696 46.5537 43.4076 44.062 42.3178L42.6996 41.7333C38.7672 40.0597 36.1588 37.9572 36.1588 33.5188C36.1588 29.4307 39.2733 26.3159 44.1401 26.3159C47.6052 26.3159 50.0969 27.523 51.8876 30.6766L47.6437 33.4021C46.7091 31.728 45.6973 31.0663 44.1399 31.0663C42.5435 31.0663 41.5313 32.0785 41.5313 33.4021C41.5313 35.0372 42.5435 35.6995 44.8794 36.7117L46.2419 37.2956C50.8751 39.2814 53.4836 41.3057 53.4836 45.8606C53.4836 50.7665 49.6293 53.4527 44.4512 53.4527C39.39 53.4527 36.1196 51.0389 34.5234 47.8851" fill="#F7DF1E"/>
</g>
<defs>
<clipPath id="clip0_336_14">
<rect width="58" height="58" fill="white"/>
</clipPath>
</defs>
</svg>
