<svg width="66" height="66" viewBox="0 0 66 66" fill="none" xmlns="http://www.w3.org/2000/svg">
<g clip-path="url(#clip0_337_30)">
<path d="M33 66C51.2254 66 66 51.2254 66 33C66 14.7746 51.2254 0 33 0C14.7746 0 0 14.7746 0 33C0 51.2254 14.7746 66 33 66Z" fill="black"/>
<path d="M33 16.5C23.887 16.5 16.5 23.887 16.5 33C16.5 42.113 23.887 49.5 33 49.5C42.113 49.5 49.5 42.113 49.5 33C49.5 23.887 42.113 16.5 33 16.5ZM40.8323 37.0464C35.1914 42.6886 25.1122 40.8878 25.1122 40.8878C25.1122 40.8878 23.2934 30.8279 28.9543 25.167C32.0912 22.0301 37.2881 22.1603 40.5732 25.4248C43.8584 28.6894 43.9699 33.9069 40.8311 37.0438L40.8323 37.0464ZM34.893 26.168L33.2784 29.4905L29.9559 31.1051L33.2784 32.7196L34.893 36.0422L36.5075 32.7196L39.832 31.107L36.5095 29.4925L34.893 26.168Z" fill="white"/>
</g>
<defs>
<clipPath id="clip0_337_30">
<rect width="66" height="66" fill="white"/>
</clipPath>
</defs>
</svg>
