<svg width="161" height="60" viewBox="0 0 161 60" fill="none" xmlns="http://www.w3.org/2000/svg">
<path d="M140.304 24.1938C139.959 24.1938 139.623 24.2651 139.327 24.433L129.935 29.8564C129.327 30.2064 128.958 30.8679 128.958 31.5713V42.3987C128.958 43.1018 129.327 43.7622 129.935 44.1133L132.388 45.5267C133.579 46.1142 134.019 46.1048 134.561 46.1048C136.325 46.1048 137.333 45.0342 137.333 43.1736V32.4916C137.333 32.3406 137.202 32.2325 137.054 32.2325H135.877C135.726 32.2325 135.598 32.3434 135.598 32.4916V43.1791C135.598 44.0039 134.739 44.8336 133.345 44.1363L130.795 42.6409C130.705 42.5919 130.636 42.5024 130.636 42.4018V31.5743C130.636 31.4718 130.704 31.3671 130.795 31.3152L140.167 25.9112C140.255 25.8608 140.359 25.8608 140.446 25.9112L149.818 31.3152C149.907 31.3687 149.977 31.4685 149.977 31.5743V42.4018C149.977 42.5051 149.926 42.611 149.838 42.6609L140.446 48.0649C140.363 48.1129 140.252 48.1129 140.167 48.0649L137.755 46.6294C137.683 46.5873 137.585 46.5906 137.515 46.6294C136.85 47.0068 136.724 47.0506 136.1 47.2673C135.946 47.3208 135.712 47.4042 136.18 47.6664L139.33 49.5232C139.63 49.6966 139.964 49.7823 140.307 49.7823C140.655 49.7823 140.984 49.6991 141.284 49.5232L150.676 44.1191C151.284 43.7655 151.653 43.1076 151.653 42.4045V31.5771C151.653 30.8738 151.284 30.2136 150.676 29.8622L141.284 24.4388C140.99 24.2709 140.653 24.1997 140.307 24.1997L140.304 24.1938ZM142.816 31.9307C140.142 31.9307 138.549 33.0689 138.549 34.9614C138.549 37.0122 140.13 37.5786 142.697 37.8325C145.767 38.1332 146.007 38.584 146.007 39.1885C146.007 40.2368 145.171 40.6839 143.195 40.6839C140.713 40.6839 140.168 40.0642 139.985 38.8271C139.963 38.6946 139.861 38.5879 139.726 38.5879H138.506C138.433 38.5896 138.363 38.6195 138.311 38.6715C138.259 38.7235 138.229 38.7935 138.227 38.867C138.227 40.4475 139.087 42.3164 143.192 42.3164C146.164 42.3164 147.878 41.1525 147.878 39.1062C147.878 37.0831 146.494 36.5363 143.611 36.1547C140.701 35.7668 140.421 35.5811 140.421 34.8985C140.421 34.3354 140.656 33.5821 142.814 33.5821C144.741 33.5821 145.453 33.9978 145.745 35.297C145.77 35.419 145.878 35.5187 146.004 35.5187H147.223C147.298 35.5187 147.371 35.4727 147.423 35.419C147.474 35.3616 147.51 35.297 147.503 35.2194C147.314 32.9819 145.822 31.9293 142.817 31.9293L142.816 31.9307Z" fill="#83CD29"/>
<path d="M85.0917 10.0004C84.9868 10.0006 84.8837 10.0281 84.7927 10.0802C84.7021 10.1332 84.6269 10.2089 84.5744 10.2998C84.522 10.3907 84.4942 10.4937 84.4937 10.5987V25.8524C84.4937 26.0021 84.4238 26.1362 84.2941 26.2113C84.2306 26.2484 84.1583 26.2679 84.0848 26.2679C84.0112 26.2679 83.9389 26.2484 83.8754 26.2113L81.3829 24.7758C81.2011 24.6706 80.9948 24.6152 80.7847 24.6152C80.5747 24.6152 80.3683 24.6706 80.1865 24.7758L70.237 30.5182C69.8651 30.7327 69.6384 31.1456 69.6384 31.5749V43.0599C69.6381 43.2701 69.6933 43.4766 69.7984 43.6586C69.9034 43.8407 70.0546 43.9918 70.2368 44.0967L80.1865 49.8393C80.3682 49.9448 80.5746 50.0003 80.7847 50.0003C80.9948 50.0003 81.2012 49.9448 81.3829 49.8393L91.3326 44.0967C91.5148 43.9918 91.666 43.8407 91.7711 43.6586C91.8761 43.4766 91.9313 43.2701 91.931 43.0599V14.4269C91.931 13.9913 91.6932 13.5825 91.313 13.3703L85.391 10.0599C85.2979 10.0081 85.1948 9.99925 85.0917 10.0004ZM21.086 24.3368C20.8962 24.3446 20.718 24.3775 20.5475 24.4765L10.598 30.2189C10.4158 30.3236 10.2645 30.4746 10.1594 30.6567C10.0544 30.8388 9.9994 31.0454 10 31.2556L10.0202 46.6692C10.0202 46.8837 10.1311 47.0827 10.3195 47.1875C10.5044 47.2983 10.7336 47.2983 10.9176 47.1875L16.8196 43.7976C17.1937 43.5759 17.4376 43.1891 17.4376 42.7612V35.5627C17.4376 35.1332 17.6635 34.7397 18.0362 34.5263L20.5486 33.0708C20.7302 32.9652 20.9367 32.9101 21.1467 32.9112C21.3568 32.9099 21.5634 32.965 21.745 33.0708L24.2564 34.5254C24.6285 34.7388 24.8544 35.1329 24.8544 35.5619V42.7601C24.8544 43.1885 25.1038 43.5776 25.4724 43.7965L31.3744 47.1864C31.5601 47.2972 31.7887 47.2972 31.9725 47.1864C32.1554 47.081 32.2718 46.8823 32.2718 46.6681L32.2917 31.255C32.2929 31.0447 32.2381 30.8379 32.133 30.6557C32.028 30.4735 31.8763 30.3226 31.6937 30.2183L21.7442 24.4762C21.576 24.3775 21.3969 24.3443 21.2057 24.3365H21.0865L21.086 24.3368ZM110.494 24.4765C110.284 24.4759 110.078 24.531 109.896 24.6361L99.9464 30.3788C99.575 30.5935 99.3478 30.9862 99.3478 31.4152V42.9003C99.3478 43.3321 99.5911 43.7234 99.9658 43.9367L109.836 49.5625C110.2 49.7703 110.645 49.7861 111.012 49.5819L116.994 46.2519C117.184 46.1466 117.312 45.9498 117.313 45.7337C117.313 45.5175 117.201 45.3229 117.013 45.2154L107.003 39.4728C106.816 39.3658 106.685 39.1493 106.685 38.9343V35.343C106.685 35.1285 106.818 34.9317 107.003 34.8247L110.114 33.0301C110.299 32.9231 110.526 32.9231 110.713 33.0301L113.824 34.8247C113.916 34.8771 113.991 34.9526 114.044 35.0436C114.096 35.1346 114.124 35.2379 114.123 35.343V38.1744C114.123 38.2795 114.151 38.3828 114.203 38.4738C114.256 38.5648 114.331 38.6403 114.422 38.6926C114.609 38.8002 114.835 38.8007 115.021 38.6926L120.983 35.2238C121.353 35.0088 121.581 34.615 121.581 34.1874V31.4161C121.581 31.2059 121.526 30.9995 121.421 30.8175C121.316 30.6356 121.165 30.4844 120.983 30.3793L111.093 24.6367C110.911 24.5314 110.705 24.4763 110.495 24.477L110.494 24.4765ZM80.7447 33.0508C80.8003 33.0506 80.8552 33.0642 80.9043 33.0905L84.3138 35.0645C84.4064 35.1179 84.4734 35.2169 84.4734 35.3236V39.2716C84.4734 39.3788 84.4069 39.4775 84.3138 39.5307L80.9043 41.5047C80.8114 41.5573 80.6981 41.5573 80.605 41.5047L77.1955 39.5307C77.1026 39.4772 77.0358 39.3783 77.0358 39.2716V35.323C77.0358 35.2161 77.1029 35.1179 77.1955 35.0639L80.605 33.0902C80.6516 33.0633 80.6926 33.0508 80.7447 33.0508Z" fill="black"/>
<path d="M50.9755 24.4163C50.7654 24.4159 50.5589 24.471 50.3769 24.5759L40.4272 30.2986C40.0552 30.5131 39.8291 30.9263 39.8291 31.3553V42.8404C39.8285 43.0505 39.8836 43.2571 39.9886 43.4391C40.0936 43.6212 40.2449 43.7722 40.4272 43.8769L50.3769 49.6195C50.5586 49.725 50.765 49.7805 50.9751 49.7805C51.1852 49.7805 51.3916 49.725 51.5733 49.6195L61.523 43.8769C61.7052 43.772 61.8564 43.6209 61.9614 43.4388C62.0665 43.2568 62.1217 43.0503 62.1214 42.8401V31.3551C62.1214 30.9255 61.8952 30.5126 61.5228 30.2984L51.573 24.5757C51.3912 24.4702 51.1846 24.4151 50.9744 24.416L50.9755 24.4163ZM110.475 34.6654C110.435 34.6654 110.391 34.6654 110.355 34.6848L108.441 35.8016C108.406 35.8214 108.376 35.8502 108.355 35.8852C108.334 35.9202 108.322 35.9601 108.322 36.0009V38.1943C108.322 38.2769 108.369 38.3523 108.441 38.3939L110.355 39.4905C110.388 39.5108 110.426 39.5216 110.465 39.5216C110.504 39.5216 110.541 39.5108 110.574 39.4905L112.488 38.3939C112.559 38.3531 112.608 38.2769 112.608 38.1943V36.0009C112.608 35.9183 112.56 35.8429 112.488 35.8013L110.574 34.6845C110.539 34.6634 110.514 34.6651 110.475 34.6651L110.475 34.6654Z" fill="#83CD29"/>
</svg>
