<svg width="64" height="59" viewBox="0 0 64 59" fill="none" xmlns="http://www.w3.org/2000/svg">
<path d="M52.25 19.375C59 21.625 64 25.375 64 29.125C64 33.125 58.75 37 51.5 39.375C51.125 39.5 50.75 39.625 50.375 39.75C50.5 40.25 50.625 40.875 50.75 41.375C52.125 48.625 51 54.5 47.625 56.5C44.375 58.375 39.125 56.5 33.75 51.875C33.125 51.375 32.625 50.875 32 50.375C31.625 50.75 31.125 51.125 30.75 51.5C25.25 56.375 19.5 58.375 16.125 56.375C12.875 54.5 11.875 49 13.125 42.125C13.375 41.375 13.5 40.625 13.625 39.875C13.125 39.75 12.5 39.5 12 39.375C5 37 0 33 0 29.125C0 25.375 4.75 21.75 11.375 19.375C12.125 19.125 12.875 18.875 13.75 18.625C13.5 18 13.375 17.25 13.25 16.625C11.875 9.5 12.875 3.875 16.125 2C19.5 0 25.25 2.125 31 7.125C31.25 7.5 31.625 7.75 32 8.125C32.5 7.625 33 7.125 33.5 6.75C39 2 44.375 0 47.625 1.875C51 3.875 52 9.875 50.5 17.25C50.375 17.75 50.25 18.25 50.25 18.75C50.875 18.875 51.5 19.125 52.25 19.375ZM35.25 8.75C34.75 9.125 34.375 9.625 33.875 10C35.75 12.125 37.5 14.375 39.125 16.75C42 17 44.75 17.375 47.625 18C47.75 17.625 47.75 17.25 47.875 16.75C49.25 10.375 48.375 5.375 46.25 4.25C44.25 3.125 40 4.625 35.25 8.75ZM20.875 35.625C20.25 34.5 19.625 33.5 19 32.375C18.25 34.25 17.625 36.125 17 37.875C18.875 38.375 20.875 38.625 22.875 38.875C22.125 37.75 21.5 36.75 20.875 35.625ZM17 20.625C17.625 22.375 18.25 24.125 19 26C19.625 24.875 20.25 23.875 20.875 22.75C21.5 21.75 22.125 20.625 22.75 19.625C20.75 19.875 18.875 20.125 17 20.625ZM20.5 29.25C21.375 30.875 22.25 32.625 23.125 34.25C24.125 35.875 25.125 37.5 26.25 39.125C28.125 39.25 30 39.375 32 39.375C33.875 39.375 35.875 39.25 37.75 39.125C38.75 37.5 39.75 35.875 40.75 34.25C41.75 32.625 42.625 30.875 43.375 29.125C42.625 27.375 41.625 25.75 40.75 24.125C39.75 22.5 38.75 20.875 37.625 19.25C35.875 19.125 33.875 19 32 19C30 19 28.125 19.125 26.25 19.25C25.125 20.875 24.125 22.5 23.125 24.125C22.25 25.75 21.25 27.5 20.5 29.25ZM43 35.625C42.375 36.625 41.75 37.75 41.125 38.75C43.125 38.625 45 38.25 47 37.75C46.375 35.875 45.625 34.125 44.875 32.25C44.25 33.375 43.75 34.5 43 35.625ZM44.875 26C45.625 24.25 46.25 22.5 46.875 20.625C45.125 20.25 43.125 19.875 41.125 19.625C41.75 20.625 42.375 21.75 43 22.75C43.625 23.875 44.25 24.875 44.875 26ZM32 12C30.75 13.375 29.5 14.875 28.25 16.5C30.75 16.375 33.25 16.375 35.625 16.5C34.5 14.875 33.25 13.375 32 12ZM17.5 4.25C15.5 5.5 14.75 10 15.875 16C16 16.75 16.125 17.375 16.375 18C19.125 17.375 21.875 17 24.75 16.75C26.375 14.375 28.125 12.125 30.125 10C29.75 9.75 29.5 9.5 29.125 9.125C24.25 4.875 19.625 3.125 17.5 4.25ZM14.375 37.25C15.25 34.5 16.25 31.75 17.5 29.25C16.375 26.625 15.25 24 14.5 21.25C13.75 21.5 13 21.625 12.25 21.875C6.625 23.875 2.625 26.875 2.625 29.125C2.875 30.625 3.75 32 5 32.875C7.125 34.625 10.25 35.875 12.875 36.75C13.375 37 13.875 37.125 14.375 37.25ZM29 49.5C29.375 49.125 29.75 48.75 30.125 48.375C28.25 46.25 26.375 44 24.75 41.75C21.875 41.5 19.125 41.125 16.25 40.5C16.125 41.125 16 41.875 15.875 42.625C14.75 48.5 15.5 52.875 17.5 54.125C19 54.625 20.5 54.625 21.875 53.875C24.5 52.875 26.875 51.375 29 49.5ZM32 46.5C33.375 45 34.625 43.5 35.75 41.875C34.5 42 33.25 42 32 42C30.75 42 29.5 42 28.25 41.875C29.5 43.625 30.75 45.125 32 46.5ZM48.375 50.25C48.75 47.5 48.625 44.625 48.125 41.875C48 41.375 47.875 40.875 47.75 40.375C44.875 41 42.125 41.5 39.25 41.75C37.625 44.125 35.875 46.25 33.875 48.375C34.5 48.875 35 49.375 35.5 49.875C40.125 53.75 44.375 55.25 46.375 54.125C47.5 53.125 48.25 51.75 48.375 50.25ZM50.625 36.75C56.875 34.75 61.25 31.5 61.25 29.125C61.25 26.875 57.125 23.875 51.375 21.875C50.75 21.625 50.125 21.5 49.5 21.25C48.625 24 47.625 26.625 46.375 29.125C47.625 31.75 48.75 34.375 49.625 37.125C50 37 50.25 36.875 50.625 36.75ZM32 34.875C28.75 34.875 26.25 32.375 26.25 29.125C26.25 26 28.75 23.5 32 23.5C35.125 23.5 37.625 26 37.625 29.125C37.625 32.375 35.125 34.875 32 34.875Z" fill="black"/>
</svg>
