<svg width="67" height="41" viewBox="0 0 67 41" fill="none" xmlns="http://www.w3.org/2000/svg">
<g clip-path="url(#clip0_295_13)">
<mask id="mask0_295_13" style="mask-type:luminance" maskUnits="userSpaceOnUse" x="0" y="0" width="67" height="41">
<path d="M0 0H67V40.2545H0V0Z" fill="white"/>
</mask>
<g mask="url(#mask0_295_13)">
<path fill-rule="evenodd" clip-rule="evenodd" d="M33.5 0C24.5667 0 18.9833 4.47273 16.75 13.4182C20.1 8.94545 24.0083 7.26818 28.475 8.38636C31.0235 9.02373 32.8449 10.8762 34.8611 12.9249C38.1453 16.2633 41.947 20.1273 50.25 20.1273C59.1833 20.1273 64.7667 15.6545 67 6.70909C63.65 11.1818 59.7417 12.8591 55.275 11.7409C52.7265 11.1035 50.9051 9.25109 48.8889 7.20233C45.6047 3.86394 41.803 0 33.5 0ZM16.75 20.1273C7.81667 20.1273 2.23333 24.6 0 33.5455C3.35 29.0727 7.25833 27.3955 11.725 28.5136C14.2735 29.1522 16.0949 31.0035 18.1111 33.0522C21.3953 36.3906 25.197 40.2545 33.5 40.2545C42.4333 40.2545 48.0167 35.7818 50.25 26.8364C46.9 31.3091 42.9917 32.9864 38.525 31.8682C35.9765 31.2308 34.1551 29.3784 32.1389 27.3296C28.8547 23.9912 25.053 20.1273 16.75 20.1273Z" fill="black"/>
</g>
</g>
<defs>
<clipPath id="clip0_295_13">
<rect width="67" height="41" fill="white"/>
</clipPath>
</defs>
</svg>
