<svg width="36" height="29" viewBox="0 0 36 29" fill="none" xmlns="http://www.w3.org/2000/svg">
<path d="M12.6 0H23.4C26.4214 0 28.9286 0.192857 30.7929 0.899999C32.9143 1.67143 34.2643 3.08571 35.1 5.14286C35.8071 7.07143 35.0357 9 33.8143 10.1571C32.3357 11.5071 30.0857 13.4357 27.3857 15.0429C24.6857 16.65 21.4071 18 18 18C14.5929 18 11.3143 16.65 8.61429 15.0429C5.91429 13.4357 3.66429 11.5071 2.18571 10.1571C0.964286 9 0.192857 7.07143 0.9 5.14286C1.73571 3.08571 3.08571 1.67143 5.20714 0.899999C7.13571 0.192857 9.57857 0 12.6 0ZM23.4 3.6H12.6C9.64286 3.6 7.71429 3.79286 6.42857 4.30714C5.33571 4.69286 4.69286 5.33571 4.30714 6.42857C4.17857 6.68571 4.24286 7.13571 4.69286 7.52143C5.97857 8.74286 8.1 10.5429 10.4786 11.9571C12.9214 13.3714 15.4929 14.4 18 14.4C20.5071 14.4 23.0786 13.3714 25.5214 11.9571C27.9643 10.5429 30.0214 8.74286 31.3071 7.52143C31.7571 7.13571 31.8214 6.68571 31.6929 6.42857C31.3071 5.33571 30.6643 4.69286 29.5714 4.30714C28.2857 3.79286 26.3571 3.6 23.4 3.6ZM34.2 14.4C35.2286 14.4 36 15.2357 36 16.2C36 18.5143 35.8714 20.4429 35.55 22.05C35.1643 23.7214 34.5857 25.1357 33.4286 26.2286C32.3357 27.3857 30.9214 27.9643 29.25 28.35C27.6429 28.6714 25.7143 28.8 23.4 28.8H12.6C10.2857 28.8 8.35714 28.6714 6.75 28.35C5.07857 27.9643 3.66429 27.3857 2.57143 26.2286C1.41429 25.1357 0.835714 23.7214 0.45 22.05C0.128571 20.4429 0 18.5143 0 16.2C0 15.2357 0.835714 14.4 1.8 14.4C2.82857 14.4 3.6 15.2357 3.6 16.2C3.6 18.3857 3.72857 20.0571 3.98571 21.2786C4.24286 22.5 4.62857 23.2714 5.07857 23.7214C5.59286 24.1714 6.3 24.5571 7.52143 24.8143C8.74286 25.0714 10.4143 25.2 12.6 25.2H23.4C25.5857 25.2 27.2571 25.0714 28.4786 24.8143C29.7 24.5571 30.4714 24.1714 30.9214 23.7214C31.3714 23.2071 31.7571 22.5 32.0143 21.2786C32.2714 20.0571 32.4 18.3857 32.4 16.2C32.4 15.2357 33.2357 14.4 34.2 14.4Z" fill="black"/>
</svg>
