<svg width="32" height="32" viewBox="0 0 32 32" fill="none" xmlns="http://www.w3.org/2000/svg">
<path d="M29.25 0C30.4453 0 31.5 1.05469 31.5 2.32031V29.25C31.5 30.5156 30.4453 31.5 29.25 31.5H2.17969C0.984375 31.5 0 30.5156 0 29.25V2.32031C0 1.05469 0.984375 0 2.17969 0H29.25ZM9.49219 27V12.0234H4.85156V27H9.49219ZM7.17188 9.91406C8.64844 9.91406 9.84375 8.71875 9.84375 7.24219C9.84375 5.76562 8.64844 4.5 7.17188 4.5C5.625 4.5 4.42969 5.76562 4.42969 7.24219C4.42969 8.71875 5.625 9.91406 7.17188 9.91406ZM27 27V18.7734C27 14.7656 26.0859 11.6016 21.375 11.6016C19.125 11.6016 17.5781 12.8672 16.9453 14.0625H16.875V12.0234H12.4453V27H17.0859V19.6172C17.0859 17.6484 17.4375 15.75 19.8984 15.75C22.2891 15.75 22.2891 18 22.2891 19.6875V27H27Z" fill="black"/>
</svg>
