<svg width="26" height="32" viewBox="0 0 26 32" fill="none" xmlns="http://www.w3.org/2000/svg">
<path d="M12.8 7.2002C14.3429 7.2002 15.7714 7.71448 16.8571 8.74305C17.8857 9.82877 18.4 11.2573 18.4 12.8002C18.4 14.3431 17.8857 15.7716 16.8571 16.8573C15.8286 17.8859 14.3429 18.4002 12.8 18.4002C11.2571 18.4002 9.82857 17.8859 8.74286 16.8573C7.71429 15.8288 7.2 14.3431 7.2 12.8002C7.2 11.2573 7.71429 9.82877 8.74286 8.74305C9.82857 7.71448 11.2571 7.2002 12.8 7.2002ZM10.4 12.8002C10.4 13.6573 10.6857 14.2288 11.0286 14.5716C11.3714 14.9145 11.9429 15.2002 12.8 15.2002C13.6571 15.2002 14.2286 14.9145 14.5714 14.5716C14.9143 14.2288 15.2 13.6573 15.2 12.8002C15.2 11.9431 14.9143 11.3716 14.5714 11.0288C14.2286 10.6859 13.6571 10.4002 12.8 10.4002C11.9429 10.4002 11.3714 10.6859 11.0286 11.0288C10.6857 11.3716 10.4 11.9431 10.4 12.8002ZM12.8 0.00019455C16.5714 0.00019455 19.8286 1.2002 22.1143 3.48591C24.4 5.82877 25.6 9.02877 25.6 12.8002C25.6 16.9716 24 20.7431 22.1143 23.7716C20.2286 26.8002 18.0571 29.1431 16.6857 30.4573C15.6 31.4859 14.2286 32.0002 12.8 32.0002C11.4286 32.0002 10 31.4859 8.91429 30.4573C7.6 29.1431 5.37143 26.8002 3.48571 23.7716C1.6 20.7431 0 16.9716 0 12.8002C0 9.02877 1.2 5.82877 3.48571 3.48591C5.82857 1.2002 9.02857 0.00019455 12.8 0.00019455ZM3.2 12.8002C3.2 16.1716 4.51429 19.3716 6.22857 22.1145C7.88571 24.8002 9.88571 26.9716 11.1429 28.1716C11.5429 28.5716 12.1143 28.8002 12.8 28.8002C13.4857 28.8002 14.0571 28.5716 14.4571 28.1716C15.7143 26.9716 17.7143 24.8002 19.3714 22.1145C21.0857 19.3716 22.4 16.1716 22.4 12.8002C22.4 9.71448 21.4286 7.37162 19.8286 5.77162C18.2286 4.17162 15.8857 3.2002 12.8 3.2002C9.71429 3.2002 7.37143 4.17162 5.77143 5.77162C4.17143 7.37162 3.2 9.71448 3.2 12.8002Z" fill="black"/>
</svg>
