<svg width="32" height="32" viewBox="0 0 32 32" fill="none" xmlns="http://www.w3.org/2000/svg">
<path d="M3.77143 1.02877C4.57143 0.343052 5.65714 0.00019455 6.68571 0.00019455C7.94286 0.00019455 9.14286 0.514481 10.0571 1.37162L12.9714 4.28591C14.9714 6.28591 15.4857 9.60019 13.4286 12.0002C11.7714 13.9431 9.14286 16.4573 5.48571 18.5716C6.4 20.3431 7.48571 21.8859 8.8 23.2002C10.1143 24.5145 11.6571 25.6573 13.4286 26.5145C15.5429 22.8573 18.0571 20.2288 20 18.5716C22.4 16.5145 25.7143 17.0288 27.7143 19.0859L30.6286 21.9431C31.4857 22.8573 32 24.0573 32 25.3145C32 26.4002 31.6571 27.4288 30.9714 28.2859L29.8857 29.6002C28.6857 31.1431 26.8571 32.0002 24.9143 32.0002H24C16.8 32.0002 10.8 29.7145 6.51429 25.4859C2.28571 21.2002 0 15.2002 0 8.00019V7.08591C0 5.14305 0.914286 3.31448 2.4 2.11448L3.77143 1.02877ZM16.4 27.7145C18.6857 28.4002 21.2 28.8002 24 28.8002H24.9143C25.8857 28.8002 26.8 28.3431 27.3714 27.6002L28.4571 26.2859C28.9143 25.6573 28.9143 24.7431 28.3429 24.2288L25.4286 21.3145C24.4 20.2859 22.9714 20.2288 22.1143 20.9716C20.4571 22.4573 18.2857 24.6288 16.4 27.7145ZM4.28571 15.6002C7.37143 13.7145 9.6 11.5431 11.0286 9.88591C11.7714 9.02877 11.7143 7.60019 10.6857 6.51448L7.77143 3.65734C7.25714 3.08591 6.34286 3.08591 5.77143 3.54305L4.4 4.62877C3.65714 5.2002 3.2 6.11448 3.2 7.08591V8.00019C3.2 10.8002 3.6 13.3145 4.28571 15.6002Z" fill="black"/>
</svg>
