<svg width="16" height="17" viewBox="0 0 16 17" fill="none" xmlns="http://www.w3.org/2000/svg">
<path d="M15.2002 8.11436C15.2002 8.82864 14.9431 9.54293 14.4288 10.0572C13.6288 10.8572 12.0002 12.2572 9.60019 13.6572C7.25734 15.0286 5.25734 15.7144 4.14305 16.0001C3.37162 16.2286 2.6002 16.0858 1.94305 15.7144C1.25734 15.3144 0.714481 14.6286 0.543052 13.8001C0.314481 12.7144 0.000195324 10.7429 0.000195324 8.11436C0.000195324 5.34293 0.428767 3.22864 0.714481 2.14293C0.88591 1.42864 1.4002 0.857212 2.0002 0.485784C2.6002 0.142927 3.34305 6.96182e-05 4.08591 0.200069C5.17162 0.514356 7.2002 1.1715 9.60019 2.5715C12.0002 3.9715 13.6002 5.3715 14.4002 6.1715C14.9431 6.68578 15.2002 7.40007 15.2002 8.11436Z" fill="white"/>
</svg>
